<?xml version="1.0" standalone="no"?><!DOCTYPE svg PUBLIC "-//W3C//DTD SVG 1.1//EN" "http://www.w3.org/Graphics/SVG/1.1/DTD/svg11.dtd"><svg t="1751188576122" class="icon" viewBox="0 0 1024 1024" version="1.1" xmlns="http://www.w3.org/2000/svg" p-id="9532" xmlns:xlink="http://www.w3.org/1999/xlink" width="200" height="200"><path d="M451.738429 682.506786m30.169889-30.169889l85.229938-85.229938q30.169889-30.169889 60.339778 0l0 0q30.169889 30.169889 0 60.339779l-85.229937 85.229937q-30.169889 30.169889-60.339779 0l0 0q-30.169889-30.169889 0-60.339778Z" p-id="9533" fill="#ffffff"></path><path d="M511.987308 743.015087m-30.169889-30.169889l-85.229937-85.229938q-30.169889-30.169889 0-60.339778l0 0q30.169889-30.169889 60.339778 0l85.229938 85.229937q30.169889 30.169889 0 60.339779l0 0q-30.169889 30.169889-60.339779 0Z" p-id="9534" fill="#ffffff"></path><path d="M512.065267 280.971344m30.169889 30.169889l85.229938 85.229938q30.169889 30.169889 0 60.339778l0 0q-30.169889 30.169889-60.339779 0l-85.229938-85.229937q-30.169889-30.169889 0-60.339779l0 0q30.169889-30.169889 60.339779 0Z" p-id="9535" fill="#ffffff"></path><path d="M572.260499 341.26694m-30.169889 30.169889l-85.229938 85.229938q-30.169889 30.169889-60.339778 0l0 0q-30.169889-30.169889 0-60.339779l85.229937-85.229937q30.169889-30.169889 60.339779 0l0 0q30.169889 30.169889 0 60.339778Z" p-id="9536" fill="#ffffff"></path></svg>